<svg width="21" height="15" viewBox="0 0 21 15" fill="none" xmlns="http://www.w3.org/2000/svg">
<path fill-rule="evenodd" clip-rule="evenodd" d="M0.509169 0.0661223C-0.164384 0.417322 -0.171031 1.28794 0.49727 1.62853C0.645841 1.70423 0.886484 1.70606 10.4881 1.7052C19.9771 1.70435 20.3326 1.70163 20.4909 1.62902C21.1642 1.32018 21.1711 0.416875 20.5028 0.0762448C20.3542 0.000549263 20.1141 -0.00127996 10.4914 0.0003055C1.59048 0.001769 0.620279 0.00819197 0.509169 0.0661223ZM0.607026 6.68119C0.359983 6.76864 0.19701 6.91112 0.0945168 7.12923C-0.119292 7.58413 0.0535686 8.06753 0.504368 8.27551L0.71432 8.37235H10.5H20.2858L20.4957 8.27551C20.9574 8.06249 21.1251 7.56803 20.891 7.11008C20.7709 6.87523 20.6002 6.73465 20.3522 6.66639C20.2545 6.63952 16.8728 6.62607 10.4795 6.62708C2.63926 6.62834 0.72663 6.63883 0.607026 6.68119ZM0.5088 13.368C0.0823719 13.5599 -0.117815 14.076 0.0728118 14.4918C0.153026 14.6667 0.393546 14.8999 0.557421 14.9616C0.693231 15.0128 20.3069 15.0128 20.4427 14.9616C20.6065 14.8999 20.8471 14.6667 20.9273 14.4918C21.1179 14.076 20.9177 13.5599 20.4913 13.368C20.3337 13.297 19.9174 13.2939 10.5 13.2939C1.08273 13.2939 0.666438 13.297 0.5088 13.368Z" fill="#808080"/>
</svg>
