<svg width="20" height="19" viewBox="0 0 20 19" fill="none" xmlns="http://www.w3.org/2000/svg">
<path fill-rule="evenodd" clip-rule="evenodd" d="M12.5532 0.0406708C12.3954 0.112233 12.2319 0.311413 12.2026 0.467546C12.1896 0.536765 12.1846 0.930515 12.1913 1.34259C12.2047 2.16251 12.2132 2.19427 12.4725 2.38782C12.6237 2.50075 12.9943 2.50075 13.1455 2.38782C13.4117 2.18907 13.4145 2.17743 13.4145 1.2379C13.4145 0.436648 13.4095 0.377624 13.3339 0.276374C13.2896 0.217038 13.2075 0.134187 13.1513 0.0922724C13.022 -0.00425109 12.7113 -0.031048 12.5532 0.0406708ZM7.89785 1.98372C7.72117 2.07118 7.59004 2.24489 7.55015 2.44427C7.50078 2.69122 7.61668 2.86817 8.21214 3.45485C8.73136 3.96646 8.78226 4.00606 8.95292 4.03165C9.3655 4.09353 9.72714 3.732 9.66531 3.31954C9.63984 3.14966 9.59937 3.0972 9.10429 2.59227C8.42058 1.89497 8.2505 1.80919 7.89785 1.98372ZM17.2035 1.97591C17.1095 2.01934 16.8347 2.26493 16.5133 2.5927C16.086 3.02856 15.9741 3.16544 15.9529 3.27829C15.8705 3.7179 16.2309 4.09677 16.669 4.03106C16.8347 4.00622 16.8908 3.96235 17.4059 3.45485C18.0014 2.86817 18.1173 2.69122 18.0679 2.44427C18.0277 2.24333 17.8952 2.06911 17.7171 1.98286C17.5125 1.88384 17.4059 1.88239 17.2035 1.97591ZM12.2035 3.15313C10.9276 3.35017 9.7546 4.20735 9.18496 5.359C9.09996 5.53087 8.99148 5.79005 8.94394 5.93493C8.85085 6.21861 8.75386 6.76204 8.77679 6.8715C8.78492 6.91025 8.9514 7.02263 9.17054 7.13724C9.84078 7.48771 10.4182 7.9822 10.88 8.60119L11.1132 8.91369L11.5803 8.9013C12.0861 8.88787 12.5635 8.95294 13.0043 9.09544C13.642 9.30158 14.411 9.80334 14.8162 10.2776C14.9187 10.3976 15.0337 10.4957 15.0718 10.4957C15.2285 10.4957 15.7582 10.0141 16.0815 9.57775C16.3071 9.27314 16.563 8.76087 16.689 8.36154C17.0453 7.23236 16.846 5.91372 16.1666 4.90513C15.9212 4.54083 15.4137 4.03497 15.0508 3.79294C14.3875 3.35063 13.7686 3.15634 12.9457 3.13196C12.6664 3.12372 12.3325 3.13325 12.2035 3.15313ZM17.8657 6.60419C17.489 6.77189 17.3832 7.27259 17.6583 7.58591C17.833 7.7849 17.9619 7.80771 18.8317 7.79345C19.6733 7.77966 19.7023 7.77204 19.8964 7.51193C20.0094 7.36068 20.0094 6.99013 19.8964 6.83888C19.7004 6.57634 19.6787 6.57083 18.7926 6.56056C18.1801 6.55345 17.956 6.564 17.8657 6.60419ZM6.4757 7.84122C4.96879 8.00701 3.73203 9.04951 3.29324 10.5238C3.21555 10.7849 3.18625 10.986 3.17066 11.3654C3.15141 11.834 3.1452 11.865 3.0675 11.8803C3.02203 11.8893 2.87055 11.917 2.7309 11.942C2.13391 12.0485 1.48024 12.4024 1.00813 12.8745C-0.34531 14.2279 -0.334646 16.3935 1.03207 17.7418C1.56242 18.265 2.22203 18.5941 2.94758 18.6974C3.17102 18.7293 4.92015 18.7384 9.17621 18.73L15.0942 18.7184L15.4063 18.6081C16.21 18.324 16.7746 17.7589 17.0524 16.9602C17.1487 16.6834 17.161 16.5928 17.161 16.1598C17.161 15.7268 17.1487 15.6362 17.0524 15.3594C16.8163 14.6804 16.3786 14.1755 15.7676 13.8772C15.4234 13.7092 14.9574 13.5817 14.6878 13.5817H14.5712L14.5939 13.1806C14.6241 12.6484 14.5425 12.2369 14.3123 11.7603C14.0201 11.1555 13.4379 10.6115 12.8093 10.3561C12.134 10.0817 11.3117 10.0831 10.6606 10.3598L10.4457 10.4511L10.4113 10.366C10.3924 10.3192 10.3082 10.1327 10.2242 9.95166C9.56664 8.53345 8.03285 7.66994 6.4757 7.84122ZM16.2856 10.3858C16.0448 10.5096 15.913 10.7662 15.953 11.0333C15.9791 11.2074 16.0147 11.2524 16.5531 11.7915C17.0159 12.2549 17.1572 12.3738 17.2914 12.4129C17.7396 12.5433 18.1781 12.1043 18.0455 11.6578C18.0069 11.5279 17.8889 11.383 17.5022 10.9905C17.2305 10.7147 16.9614 10.4553 16.9041 10.414C16.7339 10.2912 16.491 10.2801 16.2856 10.3858Z" fill="#A1E0FF"/>
</svg>
